<svg t="1641181903092" class="icon" viewBox="0 0 1024 1024" version="1.1" xmlns="http://www.w3.org/2000/svg" p-id="2956" width="128" height="64"><path d="M878.4896 169.1136L538.6752 53.248A49.152 49.152 0 0 0 523.6224 51.2a49.152 49.152 0 0 0-15.104 2.0992L168.704 169.1136A23.9616 23.9616 0 0 0 153.6 190.3104v482.4064c0 8.8064 5.6832 20.3776 12.5952 25.9072L510.976 967.168c3.4816 2.6624 7.9872 4.096 12.5952 4.096a20.48 20.48 0 0 0 12.5952-4.096l344.6784-268.5952a37.2224 37.2224 0 0 0 12.5952-25.9072V190.3104a23.552 23.552 0 0 0-14.848-21.1968z m-56.8832 484.352l-297.984 232.2432-297.984-232.192V225.8944l297.984-101.5808 297.984 101.5808v427.6224z" p-id="2957"></path><path d="M415.7952 452.5056a16.128 16.128 0 0 0-13.0048-6.6048H347.648a8.0384 8.0384 0 0 0-6.5024 12.6976l126.4128 173.9776a16.128 16.128 0 0 0 26.0096 0L706.048 339.968a8.0384 8.0384 0 0 0-6.5024-12.6976h-55.1936c-5.12 0-9.984 2.4576-13.0048 6.6048l-150.8864 207.7696-64.7168-89.088z" p-id="2958"></path></svg>